inDegrees=yes
name=ik_S55_A03_T02
DataType=double
version=3
OpenSimVersion=4.3-2021-08-27-4bc7ad9
endheader
time	pelvis_tilt	pelvis_list	pelvis_rotation	pelvis_tx	pelvis_ty	pelvis_tz	hip_flexion_r	hip_adduction_r	hip_rotation_r	knee_angle_r	knee_angle_r_beta	ankle_angle_r	subtalar_angle_r	mtp_angle_r	hip_flexion_l	hip_adduction_l	hip_rotation_l	knee_angle_l	knee_angle_l_beta	ankle_angle_l	subtalar_angle_l	mtp_angle_l	lumbar_extension	lumbar_bending	lumbar_rotation	arm_flex_r	arm_add_r	arm_rot_r	elbow_flex_r	pro_sup_r	wrist_flex_r	wrist_dev_r	arm_flex_l	arm_add_l	arm_rot_l	elbow_flex_l	pro_sup_l	wrist_flex_l	wrist_dev_l
21.11999999999964	-1.388840446625285	0.8398646659846964	98.47253574627135	0	0.9399999999999999	0	4.425004233523853	-3.424216845129188	-4.675781703698216	6.90579263749345	0.1205288189842439	0	0	0	2.69280093619621	0.7354756565096109	-1.699992169817518	6.266253302093756	0.1093667518855029	0	0	0	0	0	0	39.59428705657317	-39.59428705657317	4.872619562023862	83.21448134493656	85.12738070702959	0	0	39.59428705657317	-39.59428705657317	4.872619562023862	83.21448134493656	85.12738070700517	0	0
21.13999999999964	-1.478855175107862	1.095024153558269	98.70417451361973	0	0.9399999999999999	0	3.699584911267706	-3.555111083879197	-4.475359541942849	6.300658972045815	0.1099672441075208	0	0	0	2.454169232178077	0.8468633736017808	-1.470167601330452	6.701978233115758	0.116971586564862	0	0	0	0	0	0	39.5952210055405	-39.5952210055405	4.872663776187584	83.21510132046932	85.12733649286791	0	0	39.5952210055405	-39.5952210055405	4.872663776187584	83.21510132046932	85.1273364928435	0	0
21.15999999999964	-1.476685011847647	1.063353468681445	98.7144564712776	0	0.9399999999999999	0	3.694743871657398	-3.569096366937189	-4.629795796311149	5.780908955615763	0.1008958950335218	0	0	0	2.520869483212022	0.8814782595741723	-1.523281862854977	6.921288963816626	0.1207992809005468	0	0	0	0	0	0	39.59598565311499	-39.59598565311499	4.872699625083102	83.21560399235008	85.1273006439741	0	0	39.59598565311499	-39.59598565311499	4.872699625083102	83.21560399235008	85.12730064394968	0	0
21.17999999999964	-1.321040719593889	1.608003902419855	99.15383613030433	0	0.9399999999999999	0	2.257794740889161	-3.567603105394768	-5.164343309770401	4.834761059776777	0.08438249904031514	0	0	0	1.964761094975806	0.71580633235163	-1.226490237852527	7.138483660166577	0.1245900434697228	0	0	0	0	0	0	39.59752129190261	-39.59752129190261	4.872772163521003	83.21662113112129	85.12722810553942	0	0	39.59752129190261	-39.59752129190261	4.872772163521003	83.21662113112129	85.12722810551506	0	0
21.19999999999964	-1.044739558419593	1.478074459389524	99.11261323257447	0	0.9399999999999999	0	2.444520858877146	-3.276352393838708	-5.200534534098056	4.591206523508212	0.08013167047426074	0	0	0	2.076278859675309	0.5382721263945461	-1.331698689321964	7.094414512205269	0.1238208917392494	0	0	0	0	0	0	39.5981309189204	-39.5981309189204	4.872800506356043	83.21701854976097	85.12719976270567	0	0	39.5981309189204	-39.5981309189204	4.872800506356043	83.21701854976097	85.1271997626813	0	0
21.21999999999964	-0.8005108910227521	1.158786950768249	98.94424566093319	0	0.9399999999999999	0	2.249137853717539	-3.32717389928094	-4.669345365144045	3.979394766556513	0.06945354091304227	0	0	0	2.280441944808894	0.4442644838524933	-1.56492344244316	7.293089454279225	0.1272884236196489	0	0	0	0	0	0	39.59885909645539	-39.59885909645539	4.872834927646158	83.21750120755011	85.12716534141713	0	0	39.59885909645539	-39.59885909645539	4.872834927646158	83.21750120755011	85.12716534139275	0	0
21.23999999999964	-0.7157820106043914	0.9505801988336537	98.76804243972984	0	0.9399999999999999	0	2.254893726709784	-3.400022597049846	-4.618073497401737	3.744626938484885	0.0653560693354364	0	0	0	2.357473454666712	0.4848491855445667	-1.633319654813434	7.34988244164909	0.1282796482412966	0	0	0	0	0	0	39.59963273144665	-39.59963273144665	4.872871533734366	83.21801450116402	85.12712873533056	0	0	39.59963273144665	-39.59963273144665	4.872871533734366	83.21801450116402	85.12712873530619	0	0
21.25999999999964	-0.7618022297919008	0.8564534859753121	98.59768110856473	0	0.9399999999999999	0	2.221407555825703	-3.658373708399701	-5.192954205628372	3.665601583270122	0.06397681669438073	0	0	0	2.299336533993856	0.6774305443199991	-1.491321732832397	7.358432599623534	0.1284288766495163	0	0	0	0	0	0	39.6001726966808	-39.6001726966808	4.87289710098827	83.21837300750764	85.12710316807782	0	0	39.6001726966808	-39.6001726966808	4.87289710098827	83.21837300750764	85.12710316805347	0	0
